<?xml version="1.0" encoding="utf-8"?>
<svg xmlns="http://www.w3.org/2000/svg" height="256px" id="Layer_1" style="enable-background:new 0 0 707.753 256;" version="1.1" viewBox="0 0 707.753 256" width="707.753px" x="0px" y="0px">
<style type="text/css">
	.st0{fill:#73429A;}
	.st1{fill:url(#SVGID_1_);}
	.st2{fill:url(#SVGID_00000146490267713632275050000016232794537540373917_);}
	.st3{fill:url(#SVGID_00000119093124985642402700000006073981037249828795_);}
	.st4{fill:url(#SVGID_00000163779064462491567600000000820584602752816539_);}
	.st5{fill:url(#SVGID_00000171689724303032434040000016123533782072172426_);}
	.st6{fill:url(#SVGID_00000041286988416833975250000010252799685062261653_);}
	.st7{fill:url(#SVGID_00000034069773015474893630000000117306419379482502_);}
	.st8{fill:url(#SVGID_00000156555560359836830890000005057111404625154692_);}
	.st9{fill:url(#SVGID_00000077297661239906963460000001745692266625478589_);}
	.st10{fill:url(#SVGID_00000168094385267549965610000004656130182129342127_);}
	.st11{fill:url(#SVGID_00000098923062552245250650000011420904586580050050_);}
	.st12{fill:url(#SVGID_00000172404594016168705280000004349680854311307683_);}
	.st13{fill:url(#SVGID_00000044159190984896650990000017786278208880460190_);}
	.st14{fill:url(#SVGID_00000138554544085993136000000014764877573903333797_);}
	.st15{fill:url(#SVGID_00000083070933101726679300000004470475901408149938_);}
	.st16{fill:url(#SVGID_00000073706437291195484780000015584065863674836105_);}
	.st17{fill:url(#SVGID_00000029048190177969933710000011756381759471660444_);}
	.st18{fill:url(#SVGID_00000041255142865252498540000004957510675932596902_);}
	.st19{fill:url(#SVGID_00000065754518576335243060000017568216619166813620_);}
	.st20{fill:url(#SVGID_00000025427094664464210560000017882865334132345746_);}
	.st21{fill:url(#SVGID_00000173868911496351425990000013554301488296617874_);}
	.st22{fill:url(#SVGID_00000157300357223172152640000000697054625215693759_);}
	.st23{fill:url(#SVGID_00000068670942161921653580000012549896085157728911_);}
	.st24{fill:url(#SVGID_00000063608615778659822070000016001473744044534406_);}
	.st25{fill:url(#SVGID_00000045590162895790175040000013995710254038507157_);}
	.st26{fill:url(#SVGID_00000115490022198493514200000004196041383917830322_);}
	.st27{fill:url(#SVGID_00000167397748414466224350000009346471506500978608_);}
	.st28{fill:url(#SVGID_00000139286689761878397560000010854846173538592426_);}
	.st29{fill:url(#SVGID_00000182522956309096990460000001039006695715943062_);}
	.st30{fill:url(#SVGID_00000011726264908684402700000005521872722074610864_);}
	.st31{fill:url(#SVGID_00000042736349119263325400000004343039263250899594_);}
	.st32{fill:url(#SVGID_00000064332371701934813020000010101074860912543637_);}
	.st33{opacity:0.6;}
	.st34{fill-rule:evenodd;clip-rule:evenodd;fill:#FEFEFE;}
	.st35{fill-rule:evenodd;clip-rule:evenodd;fill:#F6F6F6;}
	.st36{fill-rule:evenodd;clip-rule:evenodd;fill:#F4F4F4;}
	.st37{fill-rule:evenodd;clip-rule:evenodd;fill:#EDEDED;}
	.st38{fill-rule:evenodd;clip-rule:evenodd;fill:#ECECEC;}
	.st39{fill-rule:evenodd;clip-rule:evenodd;fill:#E7E7E7;}
	.st40{fill-rule:evenodd;clip-rule:evenodd;fill:#E2E2E2;}
	.st41{fill-rule:evenodd;clip-rule:evenodd;fill:#D1D1D1;}
	.st42{fill-rule:evenodd;clip-rule:evenodd;fill:#C7C7C7;}
	.st43{fill-rule:evenodd;clip-rule:evenodd;fill:#CCCCCC;}
	.st44{fill-rule:evenodd;clip-rule:evenodd;fill:#B5B5B5;}
	.st45{fill-rule:evenodd;clip-rule:evenodd;fill:#A7A7A7;}
	.st46{fill-rule:evenodd;clip-rule:evenodd;fill:#929292;}
	.st47{fill-rule:evenodd;clip-rule:evenodd;fill:#8A8A8A;}
	.st48{fill-rule:evenodd;clip-rule:evenodd;fill:#646464;}
	.st49{fill-rule:evenodd;clip-rule:evenodd;fill:#4F4F4F;}
	.st50{fill-rule:evenodd;clip-rule:evenodd;fill:#444444;}
	.st51{fill-rule:evenodd;clip-rule:evenodd;fill:#3D3D3D;}
	.st52{fill-rule:evenodd;clip-rule:evenodd;fill:#3A3A3A;}
	.st53{fill-rule:evenodd;clip-rule:evenodd;fill:#333333;}
	.st54{fill:#FFFFFF;}
	.st55{opacity:0;fill:#FFFFFF;}
	.st56{opacity:0.0278;fill:#FCFCFC;}
	.st57{opacity:0.0556;fill:#F8F8F8;}
	.st58{opacity:0.0833;fill:#F5F5F5;}
	.st59{opacity:0.1111;fill:#F2F2F2;}
	.st60{opacity:0.1389;fill:#EEEEEE;}
	.st61{opacity:0.1667;fill:#EBEBEB;}
	.st62{opacity:0.1944;fill:#E8E8E8;}
	.st63{opacity:0.2222;fill:#E4E4E4;}
	.st64{opacity:0.25;fill:#E1E1E1;}
	.st65{opacity:0.2778;fill:#DEDEDE;}
	.st66{opacity:0.3056;fill:#DADADA;}
	.st67{opacity:0.3333;fill:#D7D7D7;}
	.st68{opacity:0.3611;fill:#D4D4D4;}
	.st69{opacity:0.3889;fill:#D0D0D0;}
	.st70{opacity:0.4167;fill:#CDCDCD;}
	.st71{opacity:0.4444;fill:#CACACA;}
	.st72{opacity:0.4722;fill:#C6C6C6;}
	.st73{opacity:0.5;fill:#C3C3C3;}
	.st74{opacity:0.5278;fill:#C0C0C0;}
	.st75{opacity:0.5556;fill:#BCBCBC;}
	.st76{opacity:0.5833;fill:#B9B9B9;}
	.st77{opacity:0.6111;fill:#B6B6B6;}
	.st78{opacity:0.6389;fill:#B2B2B2;}
	.st79{opacity:0.6667;fill:#AFAFAF;}
	.st80{opacity:0.6944;fill:#ACACAC;}
	.st81{opacity:0.7222;fill:#A8A8A8;}
	.st82{opacity:0.75;fill:#A5A5A5;}
	.st83{opacity:0.7778;fill:#A2A2A2;}
	.st84{opacity:0.8056;fill:#9E9E9E;}
	.st85{opacity:0.8333;fill:#9B9B9B;}
	.st86{opacity:0.8611;fill:#989898;}
	.st87{opacity:0.8889;fill:#949494;}
	.st88{opacity:0.9167;fill:#919191;}
	.st89{opacity:0.9444;fill:#8E8E8E;}
	.st90{opacity:0.9722;fill:#8A8A8A;}
	.st91{fill:#878787;}
	.st92{fill:url(#SVGID_00000072240374707429637050000016324979618321285262_);}
	.st93{fill:#EBEBEB;}
	.st94{fill:#7F6A93;}
</style>
<switch>
	
	<g>
		<rect class="st0" height="255.392" width="707.647" x="0.053" y="0.304"/>
		<g>
			<g>
				<linearGradient gradientUnits="userSpaceOnUse" id="SVGID_1_" x1="-19.6952" x2="1383.2086" y1="310.2473" y2="-250.4489">
					<stop offset="0" style="stop-color:#D0CEBD"/>
					<stop offset="0.0194" style="stop-color:#DBDACE"/>
					<stop offset="0.0476" style="stop-color:#E6E5DF"/>
					<stop offset="0.0827" style="stop-color:#EDEDEA"/>
					<stop offset="0.132" style="stop-color:#F2F2F1"/>
					<stop offset="0.2689" style="stop-color:#F3F3F3"/>
					<stop offset="0.3715" style="stop-color:#EFEEEC"/>
					<stop offset="0.5202" style="stop-color:#E2E1D9"/>
					<stop offset="0.6964" style="stop-color:#CECBB9"/>
					<stop offset="0.7128" style="stop-color:#CCC9B6"/>
					<stop offset="1" style="stop-color:#BBB99D"/>
				</linearGradient>
				<polygon class="st1" points="430.379,23.342 641.954,23.342 641.954,20.379 427.356,20.379 427.356,233.829 449.73,233.829 &#xA;					449.73,230.866 430.379,230.866"/>
				
					<linearGradient gradientUnits="userSpaceOnUse" id="SVGID_00000086663102387155482580000017975478558254365329_" x1="13.3622" x2="1416.2661" y1="392.9595" y2="-167.7367">
					<stop offset="0" style="stop-color:#D0CEBD"/>
					<stop offset="0.0194" style="stop-color:#DBDACE"/>
					<stop offset="0.0476" style="stop-color:#E6E5DF"/>
					<stop offset="0.0827" style="stop-color:#EDEDEA"/>
					<stop offset="0.132" style="stop-color:#F2F2F1"/>
					<stop offset="0.2689" style="stop-color:#F3F3F3"/>
					<stop offset="0.3715" style="stop-color:#EFEEEC"/>
					<stop offset="0.5202" style="stop-color:#E2E1D9"/>
					<stop offset="0.6964" style="stop-color:#CECBB9"/>
					<stop offset="0.7128" style="stop-color:#CCC9B6"/>
					<stop offset="1" style="stop-color:#BBB99D"/>
				</linearGradient>
				<polygon points="668.042,20.379 &#xA;					668.042,23.342 686.22,23.342 686.22,230.866 475.822,230.866 475.822,233.829 689.063,233.829 689.063,20.379" style="fill:url(#SVGID_00000086663102387155482580000017975478558254365329_);"/>
				
					<linearGradient gradientUnits="userSpaceOnUse" id="SVGID_00000072958469014548853190000005031465803250332297_" x1="-0.7872" x2="1402.1167" y1="357.5566" y2="-203.1396">
					<stop offset="0" style="stop-color:#D0CEBD"/>
					<stop offset="0.0194" style="stop-color:#DBDACE"/>
					<stop offset="0.0476" style="stop-color:#E6E5DF"/>
					<stop offset="0.0827" style="stop-color:#EDEDEA"/>
					<stop offset="0.132" style="stop-color:#F2F2F1"/>
					<stop offset="0.2689" style="stop-color:#F3F3F3"/>
					<stop offset="0.3715" style="stop-color:#EFEEEC"/>
					<stop offset="0.5202" style="stop-color:#E2E1D9"/>
					<stop offset="0.6964" style="stop-color:#CECBB9"/>
					<stop offset="0.7128" style="stop-color:#CCC9B6"/>
					<stop offset="1" style="stop-color:#BBB99D"/>
				</linearGradient>
				<path d="M508.202,205.243&#xA;					c2.8,0.294,5.606,0.416,8.418,0.416c23.558,0.003,47.116-0.007,70.674,0.005c12.72,0.007,25.44,0.063,38.16,0.071&#xA;					c4.905,0.003,9.74-0.581,14.453-1.997c4.93-1.482,9.432-3.775,13.354-7.138c5.167-4.431,8.562-9.988,10.399-16.517&#xA;					c1.029-3.658,1.401-7.391,1.416-11.189c0.023-6.208-1.189-12.183-3.175-18.024c-2.465-7.251-5.976-13.975-10.341-20.26&#xA;					c-0.105-0.152-0.21-0.303-0.313-0.457c-0.022-0.033-0.031-0.075-0.07-0.17c0.102-0.155,0.219-0.343,0.345-0.524&#xA;					c4.297-6.18,7.757-12.789,10.241-19.902c1.321-3.784,2.287-7.655,2.871-11.622c0.426-2.893,0.455-5.803,0.405-8.718&#xA;					c-0.075-4.393-0.919-8.641-2.531-12.719c-3.458-8.747-9.629-14.874-18.208-18.625c-3.4-1.486-6.958-2.431-10.625-2.983&#xA;					c-2.847-0.429-5.709-0.605-8.586-0.599c-4.658,0.009-9.317,0.019-13.975-0.003c-3.652-0.018-7.305-0.032-10.954-0.143&#xA;					c-3.794-0.116-7.576-0.426-11.341-0.932c-2.93-0.394-5.836-0.894-8.67-1.752c-1.534-0.465-3.037-1.014-4.385-1.906&#xA;					c-0.354-0.234-0.664-0.535-0.994-0.805c-0.041,0-0.082,0-0.123,0c0.004,0.287,0.012,0.574,0.012,0.861&#xA;					c0.001,11.346,0.001,22.692,0.001,34.037c0,0.241,0,0.481,0,0.715c0.089,0.008,0.142,0.029,0.162,0.012&#xA;					c1.55-1.313,3.381-2.065,5.291-2.666c2.611-0.823,5.292-1.31,7.995-1.683c3.641-0.502,7.3-0.793,10.974-0.902&#xA;					c1.845-0.055,3.692-0.103,5.538-0.106c7.511-0.011,15.022-0.007,22.533-0.001c2.466,0.002,4.852,0.454,7.147,1.36&#xA;					c0.229,0.09,0.453,0.191,0.676,0.294c2.689,1.25,4.372,3.321,5.055,6.204c0.409,1.729,0.532,3.48,0.435,5.254&#xA;					c-0.188,3.452-1.02,6.762-2.197,9.994c-1.083,2.973-2.409,5.835-3.989,8.578c-0.102,0.177-0.208,0.352-0.351,0.591&#xA;					c-0.187-0.146-0.36-0.273-0.524-0.41c-6.281-5.238-13.064-9.71-20.403-13.328c-5.979-2.947-12.189-5.256-18.693-6.752&#xA;					c-3.966-0.912-7.974-1.522-12.043-1.703c-0.369-0.016-0.738-0.019-1.108-0.019c-20.912-0.001-41.823,0.009-62.734-0.01&#xA;					c-4.04-0.004-7.966,0.631-11.801,1.849c-13.513,4.292-23.787,15.166-27.327,28.895c-1.131,4.389-1.508,8.847-1.159,13.362&#xA;					c1.376,17.813,14.324,32.805,31.696,36.731c3.096,0.7,6.228,1.036,9.398,1.036c20.727,0.002,41.454,0.006,62.181-0.006&#xA;					c2.362-0.001,4.71-0.272,7.044-0.624c13.183-1.989,25.065-7.213,36.093-14.547c3.112-2.069,6.09-4.32,8.956-6.718&#xA;					c0.124-0.103,0.258-0.195,0.405-0.305c0.065,0.081,0.121,0.137,0.16,0.203c2.435,4.21,4.363,8.632,5.552,13.359&#xA;					c0.487,1.934,0.783,3.9,0.863,5.894c0.073,1.792-0.079,3.562-0.55,5.302c-0.72,2.658-2.329,4.563-4.798,5.763&#xA;					c-1.773,0.861-3.654,1.349-5.599,1.568c-1.2,0.135-2.413,0.2-3.621,0.201c-36.529,0.01-73.057,0.006-109.585,0.01&#xA;					c-7.973,0.001-15.536-1.722-22.651-5.344c-12.911-6.572-22.354-18.584-25.636-32.625c-0.815-3.486-1.258-7.021-1.278-10.605&#xA;					c-0.009-1.662-0.029-3.324,0.002-4.985c0.224-12.037,4.257-22.641,12.162-31.711c6.932-7.954,15.594-13.135,25.87-15.573&#xA;					c3.281-0.778,6.608-1.234,9.994-1.191c3.037,0.038,6.075-0.011,9.111,0.053c3.405,0.071,6.803,0.291,10.191,0.67&#xA;					c2.958,0.331,5.901,0.752,8.78,1.523c1.186,0.317,2.355,0.711,3.506,1.138c1.254,0.465,2.413,1.121,3.478,2.074&#xA;					c0.033-0.196,0.064-0.323,0.074-0.451c0.011-0.143,0.003-0.287,0.003-0.431c0-11.325,0-22.651-0.002-33.976&#xA;					c0-0.286-0.024-0.571-0.037-0.857c-0.041,0-0.082,0-0.123,0c-0.249,0.23-0.474,0.494-0.75,0.685&#xA;					c-1.278,0.885-2.714,1.434-4.182,1.906c-2.486,0.799-5.043,1.287-7.618,1.677c-3.409,0.516-6.841,0.815-10.281,1.018&#xA;					c-3.687,0.217-7.38,0.226-11.073,0.244c-21.511,0.104-41.418,9.229-55.448,25.234c-8.103,9.243-13.55,19.87-16.373,31.834&#xA;					c-0.834,3.536-1.395,7.119-1.669,10.744c-0.071,0.941-0.138,1.881-0.219,2.821c-0.019,0.221-0.085,0.438-0.13,0.656&#xA;					c0,2.955,0,5.909,0,8.864c0.073,0.505,0.186,1.007,0.213,1.514c0.156,2.912,0.496,5.8,0.997,8.672&#xA;					c1.275,7.304,3.609,14.254,6.996,20.848c9.358,18.22,25.807,31.735,45.484,37.368&#xA;					C499.807,204.005,503.97,204.799,508.202,205.243z M615.216,123.752c-1.194,1.945-2.746,3.571-4.492,5.023&#xA;					c-2.839,2.36-5.991,4.233-9.273,5.896c-5.793,2.936-11.861,5.183-18.038,7.154c-7.425,2.369-14.966,4.303-22.591,5.899&#xA;					c-4.352,0.911-8.716,1.77-13.095,2.537c-3.471,0.608-6.966,1.102-10.464,1.533c-3.213,0.397-6.442,0.688-9.67,0.944&#xA;					c-4.277,0.339-8.565,0.409-12.852,0.232c-4.249-0.176-8.462-0.639-12.572-1.801c-1.98-0.56-3.889-1.291-5.658-2.357&#xA;					c-1.202-0.725-2.295-1.583-3.21-2.656c-2.548-2.988-3.032-7.084-1.268-10.591c1.136-2.259,2.789-4.09,4.685-5.722&#xA;					c2.548-2.193,5.387-3.95,8.346-5.521c4.955-2.632,10.158-4.679,15.455-6.499c6.362-2.186,12.842-3.96,19.376-5.546&#xA;					c6.216-1.509,12.478-2.795,18.774-3.916c4.421-0.787,8.862-1.447,13.322-1.975c3.87-0.458,7.752-0.794,11.645-0.987&#xA;					c1.434-0.071,2.87-0.098,3.757-0.127c3.75-0.051,6.948,0.047,10.135,0.363c3.805,0.378,7.558,1.023,11.127,2.468&#xA;					c2.031,0.822,3.917,1.883,5.459,3.478c1.942,2.01,2.862,4.42,2.739,7.202C616.772,120.579,616.153,122.225,615.216,123.752z" style="fill:url(#SVGID_00000072958469014548853190000005031465803250332297_);"/>
				
					<linearGradient gradientUnits="userSpaceOnUse" id="SVGID_00000120543483166524980330000008231935897176866237_" x1="4.2392" x2="1407.1431" y1="370.1331" y2="-190.5631">
					<stop offset="0" style="stop-color:#D0CEBD"/>
					<stop offset="0.0194" style="stop-color:#DBDACE"/>
					<stop offset="0.0476" style="stop-color:#E6E5DF"/>
					<stop offset="0.0827" style="stop-color:#EDEDEA"/>
					<stop offset="0.132" style="stop-color:#F2F2F1"/>
					<stop offset="0.2689" style="stop-color:#F3F3F3"/>
					<stop offset="0.3715" style="stop-color:#EFEEEC"/>
					<stop offset="0.5202" style="stop-color:#E2E1D9"/>
					<stop offset="0.6964" style="stop-color:#CECBB9"/>
					<stop offset="0.7128" style="stop-color:#CCC9B6"/>
					<stop offset="1" style="stop-color:#BBB99D"/>
				</linearGradient>
				<path d="M411.169,219.032&#xA;					c-0.626-1.063-1.388-2.023-2.228-2.923c-1.477-1.581-3.138-2.952-4.863-4.249c-2.352-1.767-4.818-3.37-7.261-5.004&#xA;					c-1.91-1.278-3.819-2.558-5.609-4.004c-1.068-0.863-2.089-1.776-2.936-2.864c-0.458-0.589-0.844-1.219-1.088-1.93&#xA;					c-0.325-0.95-0.297-1.888,0.144-2.789c0.688-1.407,1.76-2.366,3.311-2.745c1.434-0.35,2.867-0.258,4.286,0.054&#xA;					c3.526,0.773,6.593,2.437,9.235,4.881c1.301,1.203,2.37,2.586,3.055,4.241c0.019,0.046,0.063,0.081,0.106,0.134&#xA;					c0.216-0.818,1.59-10.176,1.543-10.516c-0.108-0.017-0.219-0.041-0.332-0.05c-1.181-0.091-2.361-0.191-3.543-0.266&#xA;					c-1.794-0.114-3.589-0.237-5.386-0.309c-2.21-0.088-4.423-0.168-6.62,0.212c-2.085,0.36-4.072,0.994-5.89,2.098&#xA;					c-1.914,1.162-3.403,2.719-4.373,4.751c-0.685,1.435-1.037,2.956-1.151,4.536c-0.085,1.172-0.062,2.336,0.225,3.487&#xA;					c0.408,1.637,1.197,3.077,2.22,4.4c1.116,1.443,2.439,2.679,3.853,3.821c1.969,1.59,4.086,2.969,6.226,4.313&#xA;					c2.054,1.29,4.117,2.568,6.156,3.881c1.321,0.85,2.583,1.786,3.712,2.888c0.74,0.722,1.401,1.506,1.8,2.476&#xA;					c0.266,0.645,0.382,1.313,0.256,2.01c-0.345,1.908-2.064,3.739-3.989,4.25c-0.982,0.26-1.977,0.265-2.975,0.137&#xA;					c-1.426-0.184-2.78-0.625-4.09-1.205c-3.008-1.333-5.654-3.203-8.037-5.456c-1.374-1.299-2.612-2.716-3.604-4.334&#xA;					c-0.517-0.843-0.953-1.723-1.188-2.691c-0.073-0.303-0.123-0.611-0.183-0.917c-0.017,0-0.034-0.001-0.051-0.001&#xA;					c-0.827,4.759-1.654,9.517-2.485,14.3c0.141,0.036,0.247,0.073,0.355,0.09c1.324,0.208,2.645,0.449,3.975,0.612&#xA;					c2.464,0.301,4.93,0.59,7.401,0.819c1.932,0.179,3.872,0.26,5.809,0.387c0.125,0.008,0.248,0.043,0.372,0.065&#xA;					c0.571,0,1.142,0,1.713,0c0.126-0.023,0.25-0.058,0.377-0.066c1.445-0.092,2.856-0.369,4.238-0.796&#xA;					c2.041-0.631,3.925-1.559,5.51-3.018c2.702-2.487,3.613-5.632,3.284-9.194C412.332,221.28,411.812,220.125,411.169,219.032z" style="fill:url(#SVGID_00000120543483166524980330000008231935897176866237_);"/>
				
					<linearGradient gradientUnits="userSpaceOnUse" id="SVGID_00000168802347510859261680000003778749372623196811_" x1="-45.2296" x2="1357.6743" y1="246.3584" y2="-314.3378">
					<stop offset="0" style="stop-color:#D0CEBD"/>
					<stop offset="0.0194" style="stop-color:#DBDACE"/>
					<stop offset="0.0476" style="stop-color:#E6E5DF"/>
					<stop offset="0.0827" style="stop-color:#EDEDEA"/>
					<stop offset="0.132" style="stop-color:#F2F2F1"/>
					<stop offset="0.2689" style="stop-color:#F3F3F3"/>
					<stop offset="0.3715" style="stop-color:#EFEEEC"/>
					<stop offset="0.5202" style="stop-color:#E2E1D9"/>
					<stop offset="0.6964" style="stop-color:#CECBB9"/>
					<stop offset="0.7128" style="stop-color:#CCC9B6"/>
					<stop offset="1" style="stop-color:#BBB99D"/>
				</linearGradient>
				<path d="M51.499,223.665&#xA;					c-0.092,0.142-0.17,0.259-0.244,0.378c-0.935,1.505-2.224,2.589-3.874,3.235c-1.965,0.769-3.981,0.816-6.018,0.363&#xA;					c-2.991-0.665-5.483-2.213-7.6-4.39c-2.18-2.242-3.654-4.908-4.631-7.863c-0.525-1.589-0.857-3.224-1.161-4.865&#xA;					c-0.454-2.445-0.769-4.905-0.736-7.399c0.02-1.534,0.179-3.048,0.612-4.524c0.69-2.354,2.027-4.206,4.248-5.332&#xA;					c2.866-1.454,5.667-1.349,8.343,0.476c0.645,0.44,1.249,0.955,1.811,1.498c1.448,1.4,2.575,3.05,3.571,4.791&#xA;					c1.644,2.874,2.881,5.922,3.862,9.078c0.031,0.1,0.078,0.195,0.151,0.373c0.075-0.546,0.138-0.997,0.198-1.449&#xA;					c0.241-1.81,0.479-3.621,0.721-5.43c0.297-2.22,0.594-4.44,0.899-6.659c0.035-0.256-0.029-0.437-0.235-0.589&#xA;					c-0.596-0.441-1.16-0.93-1.782-1.33c-3.024-1.947-6.366-2.894-9.936-3.098c-0.182-0.01-0.362-0.049-0.544-0.074&#xA;					c-0.428,0-0.857,0-1.285,0c-0.407,0.05-0.813,0.107-1.22,0.15c-2.951,0.317-5.597,1.404-7.967,3.172&#xA;					c-2.611,1.948-4.57,4.444-6.053,7.323c-1.444,2.804-2.341,5.778-2.678,8.916c-0.061,0.567-0.107,1.135-0.166,1.703&#xA;					c-0.008,0.081-0.05,0.158-0.077,0.236c0,0.543,0,1.085,0,1.628c0.052,0.436,0.13,0.87,0.151,1.307&#xA;					c0.083,1.685,0.284,3.355,0.626,5.006c0.5,2.418,1.289,4.732,2.543,6.872c1.932,3.297,4.643,5.684,8.254,6.991&#xA;					c3.107,1.125,6.301,1.289,9.536,0.727c3.822-0.664,6.837-2.6,9.011-5.825c0.987-1.464,1.719-3.056,2.365-4.691&#xA;					c0.014-0.036,0.005-0.081,0.008-0.133c-0.107-0.093-0.213-0.187-0.323-0.277C51.76,223.864,51.638,223.773,51.499,223.665z" style="fill:url(#SVGID_00000168802347510859261680000003778749372623196811_);"/>
				
					<linearGradient gradientUnits="userSpaceOnUse" id="SVGID_00000001659443727661637890000013410416160724744341_" x1="-34.5338" x2="1368.37" y1="273.1201" y2="-287.5762">
					<stop offset="0" style="stop-color:#D0CEBD"/>
					<stop offset="0.0194" style="stop-color:#DBDACE"/>
					<stop offset="0.0476" style="stop-color:#E6E5DF"/>
					<stop offset="0.0827" style="stop-color:#EDEDEA"/>
					<stop offset="0.132" style="stop-color:#F2F2F1"/>
					<stop offset="0.2689" style="stop-color:#F3F3F3"/>
					<stop offset="0.3715" style="stop-color:#EFEEEC"/>
					<stop offset="0.5202" style="stop-color:#E2E1D9"/>
					<stop offset="0.6964" style="stop-color:#CECBB9"/>
					<stop offset="0.7128" style="stop-color:#CCC9B6"/>
					<stop offset="1" style="stop-color:#BBB99D"/>
				</linearGradient>
				<path d="M131.438,197.61&#xA;					c-1.359-2.222-3.306-3.752-5.673-4.772c-2.488-1.071-5.111-1.531-7.8-1.546c-6.153-0.035-12.306-0.015-18.459-0.016&#xA;					c-0.078,0-0.156,0.013-0.303,0.027c0.629,0.639,0.983,1.364,1.253,2.133c0.104,0.296,0.197,0.596,0.276,0.9&#xA;					c0.604,2.307,0.826,4.666,0.833,7.038c0.023,7.694,0.016,15.389,0.004,23.083c-0.003,2.058-0.173,4.107-0.592,6.126&#xA;					c-0.302,1.457-0.671,2.896-1.791,4.117c0.196,0,0.293,0,0.389,0c4.953-0.004,9.907-0.008,14.86-0.012&#xA;					c0.01,0,0.022-0.013,0.031-0.023c0.009-0.011,0.015-0.024,0.022-0.037c-0.85-1.135-1.154-1.78-1.512-3.217&#xA;					c-0.492-1.975-0.742-3.988-0.763-6.017c-0.038-3.74-0.015-7.48-0.017-11.22c0-0.08,0.011-0.161,0.018-0.241&#xA;					c0.079,0.047,0.099,0.108,0.126,0.166c0.239,0.517,0.448,1.05,0.727,1.544c0.315,0.558,0.686,1.085,1.044,1.618&#xA;					c0.927,1.38,1.699,2.839,2.278,4.398c0.749,2.014,1.225,4.097,1.55,6.216c0.209,1.361,0.27,2.727,0.013,4.091&#xA;					c-0.182,0.967-0.489,1.878-1.213,2.594c-0.022,0.022-0.016,0.072-0.023,0.108c5.296,0,10.578,0,15.939,0&#xA;					c-0.959-0.68-1.682-1.488-2.401-2.297c-0.711-0.8-1.405-1.615-2.091-2.438c-1.48-1.776-2.918-3.589-4.432-5.335&#xA;					c-1.966-2.269-4.077-4.396-6.507-6.182c-0.038-0.028-0.058-0.079-0.117-0.164c0.311,0.035,0.564,0.076,0.819,0.091&#xA;					c3.074,0.184,6-0.383,8.737-1.8c3.453-1.788,5.636-4.566,6.392-8.413c0.395-2.012,0.359-4.031,0.021-6.045&#xA;					C132.809,200.494,132.283,198.991,131.438,197.61z M123.637,205.158c-0.034,1.254-0.101,2.509-0.212,3.759&#xA;					c-0.139,1.552-0.413,3.085-1.022,4.532c-0.214,0.509-0.479,1.007-0.786,1.466c-0.664,0.993-1.597,1.612-2.78,1.836&#xA;					c-0.691,0.13-1.385,0.183-2.086,0.099c-1.464-0.176-2.547-0.937-3.316-2.169c-0.568-0.91-0.898-1.913-1.042-2.966&#xA;					c-0.11-0.803-0.186-1.618-0.188-2.428c-0.016-5.524-0.008-11.047-0.008-16.571c0-0.169,0-0.339,0-0.57c0.205,0,0.346,0,0.486,0&#xA;					c0.885,0,1.77,0.004,2.655-0.001c2.359-0.012,4.251,0.954,5.726,2.761c1.041,1.274,1.637,2.765,2.027,4.347&#xA;					C123.569,201.193,123.69,203.17,123.637,205.158z" style="fill:url(#SVGID_00000001659443727661637890000013410416160724744341_);"/>
				
					<linearGradient gradientUnits="userSpaceOnUse" id="SVGID_00000016754567061730582680000014826300388147529865_" x1="-22.1728" x2="1380.7311" y1="304.0482" y2="-256.648">
					<stop offset="0" style="stop-color:#D0CEBD"/>
					<stop offset="0.0194" style="stop-color:#DBDACE"/>
					<stop offset="0.0476" style="stop-color:#E6E5DF"/>
					<stop offset="0.0827" style="stop-color:#EDEDEA"/>
					<stop offset="0.132" style="stop-color:#F2F2F1"/>
					<stop offset="0.2689" style="stop-color:#F3F3F3"/>
					<stop offset="0.3715" style="stop-color:#EFEEEC"/>
					<stop offset="0.5202" style="stop-color:#E2E1D9"/>
					<stop offset="0.6964" style="stop-color:#CECBB9"/>
					<stop offset="0.7128" style="stop-color:#CCC9B6"/>
					<stop offset="1" style="stop-color:#BBB99D"/>
				</linearGradient>
				<path d="M221.107,204.053&#xA;					c-0.577-2.341-1.422-4.575-2.717-6.623c-1.884-2.981-4.447-5.105-7.842-6.154c-2.526-0.78-5.109-0.906-7.711-0.52&#xA;					c-4.162,0.618-7.439,2.682-9.824,6.15c-1.566,2.278-2.532,4.813-3.165,7.486c-0.535,2.257-0.799,4.549-0.892,6.865&#xA;					c-0.139,3.482,0.096,6.931,0.888,10.332c0.6,2.575,1.521,5.023,2.977,7.246c1.887,2.882,4.416,4.946,7.731,5.976&#xA;					c2.395,0.744,4.845,0.888,7.327,0.571c4.298-0.549,7.663-2.629,10.118-6.188c1.393-2.02,2.307-4.256,2.947-6.614&#xA;					c0.851-3.135,1.151-6.337,1.172-9.892c-0.011-0.324-0.031-0.966-0.055-1.608C221.975,208.707,221.676,206.361,221.107,204.053z&#xA;					 M213.143,229.918c-0.176,0.752-0.399,1.491-0.777,2.168c-0.2,0.359-0.425,0.714-0.693,1.024&#xA;					c-1.071,1.236-2.672,1.515-4.112,0.743c-0.572-0.307-1.063-0.718-1.505-1.189c-0.966-1.03-1.689-2.225-2.327-3.474&#xA;					c-1.159-2.27-2.006-4.662-2.735-7.097c-1.107-3.693-1.941-7.449-2.595-11.247c-0.363-2.11-0.65-4.23-0.819-6.364&#xA;					c-0.168-2.122-0.223-4.248-0.015-6.371c0.117-1.195,0.325-2.374,0.753-3.504c0.234-0.617,0.529-1.201,0.952-1.713&#xA;					c1.081-1.307,2.698-1.633,4.198-0.841c0.718,0.379,1.301,0.923,1.826,1.533c0.863,1.002,1.532,2.129,2.125,3.305&#xA;					c1.192,2.365,2.064,4.854,2.808,7.388c1.17,3.987,2.047,8.04,2.682,12.147c0.436,2.824,0.728,5.989,0.737,8.49&#xA;					C213.626,226.389,213.552,228.17,213.143,229.918z" style="fill:url(#SVGID_00000016754567061730582680000014826300388147529865_);"/>
				
					<linearGradient gradientUnits="userSpaceOnUse" id="SVGID_00000148653691758145891240000013749898306675964294_" x1="-5.3775" x2="1397.5264" y1="346.0713" y2="-214.625">
					<stop offset="0" style="stop-color:#D0CEBD"/>
					<stop offset="0.0194" style="stop-color:#DBDACE"/>
					<stop offset="0.0476" style="stop-color:#E6E5DF"/>
					<stop offset="0.0827" style="stop-color:#EDEDEA"/>
					<stop offset="0.132" style="stop-color:#F2F2F1"/>
					<stop offset="0.2689" style="stop-color:#F3F3F3"/>
					<stop offset="0.3715" style="stop-color:#EFEEEC"/>
					<stop offset="0.5202" style="stop-color:#E2E1D9"/>
					<stop offset="0.6964" style="stop-color:#CECBB9"/>
					<stop offset="0.7128" style="stop-color:#CCC9B6"/>
					<stop offset="1" style="stop-color:#BBB99D"/>
				</linearGradient>
				<path d="M342.843,203.27&#xA;					c-0.668-2.411-1.634-4.686-3.108-6.724c-1.97-2.724-4.556-4.574-7.818-5.434c-2.552-0.672-5.135-0.729-7.725-0.257&#xA;					c-2.827,0.515-5.292,1.758-7.346,3.782c-1.535,1.513-2.68,3.293-3.554,5.253c-1.401,3.14-2.05,6.46-2.31,9.867&#xA;					c-0.156,2.052-0.155,4.106-0.021,6.161c0.145,2.227,0.471,4.425,1.054,6.581c0.671,2.484,1.651,4.831,3.159,6.934&#xA;					c1.918,2.678,4.425,4.547,7.605,5.463c2.323,0.669,4.689,0.792,7.082,0.481c4.012-0.522,7.245-2.388,9.677-5.624&#xA;					c1.583-2.106,2.603-4.482,3.303-7.004c0.884-3.186,1.206-6.443,1.233-9.74c-0.035-0.87-0.06-1.74-0.105-2.609&#xA;					C343.843,207.984,343.49,205.603,342.843,203.27z M335.559,225.888c-0.052,1.716-0.222,3.417-0.766,5.059&#xA;					c-0.239,0.722-0.557,1.406-1.036,2.004c-1.128,1.41-2.844,1.727-4.405,0.816c-0.726-0.424-1.31-1.008-1.835-1.654&#xA;					c-0.915-1.126-1.61-2.387-2.225-3.694c-1.163-2.473-2.017-5.058-2.751-7.684c-1.056-3.781-1.869-7.616-2.462-11.497&#xA;					c-0.408-2.668-0.682-5.35-0.71-8.204c0.002-1.649,0.077-3.446,0.525-5.201c0.168-0.659,0.416-1.303,0.684-1.93&#xA;					c0.154-0.362,0.389-0.701,0.639-1.008c1.082-1.329,2.725-1.64,4.231-0.823c0.609,0.331,1.124,0.78,1.589,1.289&#xA;					c1.069,1.172,1.848,2.532,2.533,3.95c1.245,2.578,2.14,5.284,2.907,8.035c1.066,3.824,1.883,7.701,2.46,11.627&#xA;					C335.371,219.929,335.649,222.897,335.559,225.888z" style="fill:url(#SVGID_00000148653691758145891240000013749898306675964294_);"/>
				
					<linearGradient gradientUnits="userSpaceOnUse" id="SVGID_00000093163518818760175080000008749253009590391228_" x1="-18.5358" x2="1384.368" y1="313.1483" y2="-247.548">
					<stop offset="0" style="stop-color:#D0CEBD"/>
					<stop offset="0.0194" style="stop-color:#DBDACE"/>
					<stop offset="0.0476" style="stop-color:#E6E5DF"/>
					<stop offset="0.0827" style="stop-color:#EDEDEA"/>
					<stop offset="0.132" style="stop-color:#F2F2F1"/>
					<stop offset="0.2689" style="stop-color:#F3F3F3"/>
					<stop offset="0.3715" style="stop-color:#EFEEEC"/>
					<stop offset="0.5202" style="stop-color:#E2E1D9"/>
					<stop offset="0.6964" style="stop-color:#CECBB9"/>
					<stop offset="0.7128" style="stop-color:#CCC9B6"/>
					<stop offset="1" style="stop-color:#BBB99D"/>
				</linearGradient>
				<path d="M254.354,194.317&#xA;					c-1.15-0.87-2.427-1.495-3.79-1.949c-2.449-0.816-4.981-1.111-7.547-1.117c-5.982-0.014-11.964-0.004-17.946-0.004&#xA;					c-0.14,0-0.279,0-0.47,0c0.247,0.341,0.465,0.606,0.643,0.895c0.399,0.65,0.646,1.365,0.84,2.098&#xA;					c0.614,2.32,0.84,4.691,0.846,7.079c0.018,7.295,0.001,14.59,0.011,21.885c0.002,1.772-0.047,3.539-0.263,5.299&#xA;					c-0.156,1.276-0.37,2.541-0.773,3.766c-0.274,0.832-0.615,1.63-1.245,2.269c-0.022,0.022-0.012,0.075-0.017,0.114&#xA;					c1.428,0.092,14.895,0.046,15.22-0.051c-0.793-1.033-1.089-1.62-1.44-2.924c-0.56-2.079-0.816-4.207-0.844-6.349&#xA;					c-0.048-3.654-0.017-7.309-0.019-10.964c0-0.065,0.01-0.13,0.021-0.28c0.079,0.126,0.118,0.179,0.146,0.237&#xA;					c0.496,1.018,1.287,1.729,2.298,2.213c0.913,0.437,1.884,0.646,2.883,0.756c1.214,0.134,2.422,0.075,3.63-0.082&#xA;					c2.025-0.264,3.971-0.798,5.789-1.743c3.035-1.578,5.081-3.978,5.917-7.322c0.718-2.872,0.641-5.747-0.222-8.58&#xA;					C257.369,197.427,256.142,195.67,254.354,194.317z M249.006,204.965c-0.049,1.54-0.138,3.078-0.396,4.601&#xA;					c-0.217,1.284-0.512,2.546-1.108,3.715c-0.187,0.367-0.407,0.722-0.652,1.052c-0.778,1.045-1.848,1.595-3.127,1.724&#xA;					c-0.925,0.093-1.852,0.089-2.766-0.134c-1.278-0.312-2.183-1.067-2.723-2.266c-0.454-1.007-0.592-2.078-0.662-3.164&#xA;					c-0.014-0.213-0.011-0.428-0.011-0.642c-0.001-5.851-0.001-11.702-0.001-17.553c0-0.156,0-0.312,0-0.523&#xA;					c0.19-0.009,0.329-0.02,0.468-0.02c0.914-0.002,1.827,0.003,2.74-0.002c2.496-0.012,4.458,1.039,5.947,3.006&#xA;					c0.929,1.227,1.463,2.636,1.809,4.123C248.989,200.885,249.072,202.92,249.006,204.965z" style="fill:url(#SVGID_00000093163518818760175080000008749253009590391228_);"/>
				
					<linearGradient gradientUnits="userSpaceOnUse" id="SVGID_00000078754376724372716950000003256249866737972110_" x1="-29.1236" x2="1373.7803" y1="286.6568" y2="-274.0395">
					<stop offset="0" style="stop-color:#D0CEBD"/>
					<stop offset="0.0194" style="stop-color:#DBDACE"/>
					<stop offset="0.0476" style="stop-color:#E6E5DF"/>
					<stop offset="0.0827" style="stop-color:#EDEDEA"/>
					<stop offset="0.132" style="stop-color:#F2F2F1"/>
					<stop offset="0.2689" style="stop-color:#F3F3F3"/>
					<stop offset="0.3715" style="stop-color:#EFEEEC"/>
					<stop offset="0.5202" style="stop-color:#E2E1D9"/>
					<stop offset="0.6964" style="stop-color:#CECBB9"/>
					<stop offset="0.7128" style="stop-color:#CCC9B6"/>
					<stop offset="1" style="stop-color:#BBB99D"/>
				</linearGradient>
				<path d="M169.947,220.024&#xA;					c-0.024,0.082-0.048,0.165-0.061,0.249c-0.232,1.456-0.616,2.872-1.13,4.252c-0.759,2.037-1.779,3.924-3.259,5.535&#xA;					c-2.142,2.333-4.801,3.581-7.964,3.719c-1.183,0.052-2.369,0.019-3.554,0.038c-0.238,0.004-0.378-0.082-0.456-0.296&#xA;					c-0.232-0.643-0.515-1.272-0.69-1.93c-0.57-2.15-0.796-4.353-0.813-6.568c-0.032-4.254-0.01-8.508-0.008-12.763&#xA;					c0-0.121,0.025-0.242,0.041-0.394c0.193,0,0.348,0,0.503,0c1.114,0,2.228-0.03,3.34,0.01c0.81,0.029,1.629,0.086,2.423,0.24&#xA;					c2.306,0.447,4.043,1.709,5.172,3.784c0.488,0.896,0.841,1.844,1.067,2.835c0.186,0.817,0.329,1.643,0.505,2.534&#xA;					c0-6.565,0-13.062,0-19.56c-0.013-0.001-0.025-0.002-0.038-0.003c-0.069,0.434-0.13,0.868-0.208,1.3&#xA;					c-0.265,1.468-0.675,2.888-1.424,4.193c-1,1.742-2.46,2.897-4.393,3.452c-1.009,0.29-2.042,0.405-3.087,0.411&#xA;					c-1.142,0.007-2.284,0.002-3.426,0.002c-0.139,0-0.278,0-0.447,0c0-6.319,0-12.592,0-18.918c0.159,0,0.298,0,0.436,0&#xA;					c0.885,0,1.77,0.002,2.655-0.001c0.987-0.003,1.968,0.073,2.939,0.248c2.762,0.5,5.109,1.759,6.988,3.854&#xA;					c1.794,2,2.903,4.353,3.532,6.948c0.036,0.15,0.075,0.3,0.112,0.45c0.024-0.004,0.047-0.007,0.071-0.011&#xA;					c0.342-4.103,0.684-8.206,1.028-12.332c-0.121-0.012-0.189-0.025-0.257-0.025c-10.136,0.004-20.272,0.009-30.407,0.015&#xA;					c-0.01,0-0.022,0.014-0.029,0.024c-0.008,0.011-0.012,0.026-0.017,0.039c0.677,0.825,1,1.363,1.295,2.432&#xA;					c0.246,0.892,0.454,1.798,0.606,2.711c0.316,1.905,0.399,3.829,0.398,5.759c-0.006,6.924,0.005,13.848-0.008,20.771&#xA;					c-0.003,1.426-0.045,2.854-0.135,4.278c-0.097,1.539-0.327,3.064-0.757,4.551c-0.287,0.993-0.65,1.951-1.381,2.72&#xA;					c-0.013,0.014-0.002,0.051-0.002,0.098c10.708,0,21.419,0,32.184,0c-0.425-4.922-0.847-9.817-1.272-14.732&#xA;					C169.981,219.985,169.954,220.002,169.947,220.024z" style="fill:url(#SVGID_00000078754376724372716950000003256249866737972110_);"/>
				
					<linearGradient gradientUnits="userSpaceOnUse" id="SVGID_00000033332054942230999020000004264129118563090856_" x1="-39.5032" x2="1363.4006" y1="260.6863" y2="-300.0099">
					<stop offset="0" style="stop-color:#D0CEBD"/>
					<stop offset="0.0194" style="stop-color:#DBDACE"/>
					<stop offset="0.0476" style="stop-color:#E6E5DF"/>
					<stop offset="0.0827" style="stop-color:#EDEDEA"/>
					<stop offset="0.132" style="stop-color:#F2F2F1"/>
					<stop offset="0.2689" style="stop-color:#F3F3F3"/>
					<stop offset="0.3715" style="stop-color:#EFEEEC"/>
					<stop offset="0.5202" style="stop-color:#E2E1D9"/>
					<stop offset="0.6964" style="stop-color:#CECBB9"/>
					<stop offset="0.7128" style="stop-color:#CCC9B6"/>
					<stop offset="1" style="stop-color:#BBB99D"/>
				</linearGradient>
				<path d="M91.832,231.67&#xA;					c-0.12-0.211-0.235-0.424-0.346-0.64c-1.011-1.974-1.817-4.032-2.43-6.161c-3.188-11.058-6.364-22.118-9.545-33.178&#xA;					c-0.038-0.134-0.087-0.264-0.13-0.394c-4.6,0-9.174,0-13.817,0c0.234,0.19,0.427,0.328,0.598,0.489&#xA;					c0.576,0.543,0.919,1.23,1.177,1.964c0.441,1.25,0.616,2.549,0.681,3.864c0.141,2.851-0.142,5.674-0.629,8.478&#xA;					c-0.672,3.874-1.71,7.652-3.012,11.359c-2.068,5.892-4.749,11.491-8.041,16.797c-0.079,0.127-0.148,0.261-0.23,0.405&#xA;					c0.684,0.094,16.844,0.063,17.15-0.034c-0.126-0.092-0.238-0.176-0.352-0.259c-0.745-0.536-1.418-1.15-2.014-1.848&#xA;					c-1.399-1.637-2.284-3.537-2.872-5.59c-0.736-2.573-0.961-5.213-0.996-7.874c-0.027-2.057,0.106-4.108,0.251-6.159&#xA;					c0.025-0.35,0.067-0.699,0.101-1.053c2.453,0,4.862,0,7.288,0c0.047,0.147,0.092,0.279,0.131,0.414&#xA;					c0.794,2.754,1.597,5.506,2.379,8.263c0.665,2.345,1.423,4.666,1.858,7.072c0.275,1.518,0.511,3.04,0.475,4.59&#xA;					c-0.02,0.85-0.129,1.678-0.581,2.425c-0.01,0.016,0.014,0.051,0.024,0.086c5.05,0,10.102,0,15.154-0.001&#xA;					c0.009,0,0.02-0.017,0.025-0.028c0.005-0.012,0.005-0.026,0.01-0.059C93.139,233.814,92.455,232.765,91.832,231.67z&#xA;					 M67.459,211.038c-0.008-0.077-0.024-0.132-0.019-0.186c0.149-1.491,0.279-2.984,0.457-4.471&#xA;					c0.312-2.607,0.678-5.208,0.648-7.843c-0.017-1.503-0.124-2.993-0.529-4.449c-0.052-0.188-0.112-0.375-0.169-0.562&#xA;					c0.029-0.01,0.058-0.02,0.087-0.03c0.201,0.309,0.412,0.613,0.603,0.929c1.045,1.728,1.839,3.576,2.553,5.458&#xA;					c1.343,3.538,2.404,7.163,3.309,10.836c0.023,0.094,0.031,0.192,0.051,0.317C72.107,211.038,69.789,211.038,67.459,211.038z" style="fill:url(#SVGID_00000033332054942230999020000004264129118563090856_);"/>
				
					<linearGradient gradientUnits="userSpaceOnUse" id="SVGID_00000071517822968656031710000012929958008017521340_" x1="-0.7862" x2="1402.1177" y1="357.5591" y2="-203.1371">
					<stop offset="0" style="stop-color:#D0CEBD"/>
					<stop offset="0.0194" style="stop-color:#DBDACE"/>
					<stop offset="0.0476" style="stop-color:#E6E5DF"/>
					<stop offset="0.0827" style="stop-color:#EDEDEA"/>
					<stop offset="0.132" style="stop-color:#F2F2F1"/>
					<stop offset="0.2689" style="stop-color:#F3F3F3"/>
					<stop offset="0.3715" style="stop-color:#EFEEEC"/>
					<stop offset="0.5202" style="stop-color:#E2E1D9"/>
					<stop offset="0.6964" style="stop-color:#CECBB9"/>
					<stop offset="0.7128" style="stop-color:#CCC9B6"/>
					<stop offset="1" style="stop-color:#BBB99D"/>
				</linearGradient>
				<path d="M369.996,194.088&#xA;					c0.005,0.013,0.009,0.027,0.014,0.04c0.645,1.689,0.996,3.45,1.269,5.229c0.392,2.557,0.573,5.134,0.67,7.715&#xA;					c0.14,3.724,0.106,7.449-0.051,11.172c-0.004,0.093-0.017,0.185-0.034,0.365c-0.125-0.17-0.204-0.263-0.267-0.365&#xA;					c-0.729-1.193-1.478-2.375-2.179-3.585c-1.911-3.301-3.631-6.697-4.94-10.288c-0.887-2.434-1.587-4.915-1.718-7.522&#xA;					c-0.097-1.916,0.154-3.761,1.204-5.426c0.026-0.041,0.024-0.099,0.036-0.151c-5.811,0-11.598,0-17.387,0&#xA;					c0.004,0.038,0.001,0.056,0.007,0.062c0.03,0.029,0.061,0.06,0.096,0.082c0.561,0.35,0.98,0.839,1.269,1.421&#xA;					c0.29,0.586,0.56,1.189,0.764,1.809c0.548,1.663,0.774,3.39,0.935,5.125c0.189,2.034,0.222,4.074,0.212,6.116&#xA;					c-0.016,3.086-0.181,6.164-0.488,9.232c-0.277,2.767-0.621,5.529-0.99,8.285c-0.448,3.351-1.064,6.675-1.795,9.977&#xA;					c-0.092,0.414-0.179,0.829-0.269,1.246c0.616,0.087,9.815,0.059,10.128-0.036c-0.74-0.393-1.228-1.012-1.591-1.713&#xA;					c-0.398-0.771-0.775-1.561-1.068-2.376c-0.881-2.454-1.342-5.01-1.72-7.581c-0.418-2.84-0.697-5.696-0.835-8.56&#xA;					c-0.155-3.193-0.242-6.389-0.324-9.584c-0.058-2.227-0.126-4.451-0.474-6.656c-0.238-1.512-0.576-2.997-1.217-4.398&#xA;					c-0.032-0.071-0.047-0.15-0.069-0.226c0.196,0.125,0.336,0.283,0.468,0.448c1.934,2.398,3.567,4.995,4.99,7.719&#xA;					c5.607,10.736,11.192,21.484,16.785,32.228c0.132,0.253,0.263,0.505,0.394,0.757c1.195,0,2.371,0,3.58,0&#xA;					c-0.044-0.06-0.061-0.102-0.091-0.121c-0.591-0.369-0.974-0.912-1.275-1.522c-0.382-0.774-0.608-1.598-0.778-2.439&#xA;					c-0.393-1.94-0.481-3.908-0.484-5.878c-0.004-2.857,0.202-5.704,0.506-8.544c0.342-3.192,0.804-6.368,1.367-9.529&#xA;					c0.898-5.043,1.999-10.042,3.403-14.97c0.034-0.118,0.056-0.24,0.088-0.377c-3.384,0-6.73,0-10.101,0&#xA;					C369.101,192.193,369.466,192.719,369.996,194.088z" style="fill:url(#SVGID_00000071517822968656031710000012929958008017521340_);"/>
				
					<linearGradient gradientUnits="userSpaceOnUse" id="SVGID_00000003078756116910490850000004235045829166241409_" x1="-13.0678" x2="1389.8361" y1="326.8297" y2="-233.8665">
					<stop offset="0" style="stop-color:#D0CEBD"/>
					<stop offset="0.0194" style="stop-color:#DBDACE"/>
					<stop offset="0.0476" style="stop-color:#E6E5DF"/>
					<stop offset="0.0827" style="stop-color:#EDEDEA"/>
					<stop offset="0.132" style="stop-color:#F2F2F1"/>
					<stop offset="0.2689" style="stop-color:#F3F3F3"/>
					<stop offset="0.3715" style="stop-color:#EFEEEC"/>
					<stop offset="0.5202" style="stop-color:#E2E1D9"/>
					<stop offset="0.6964" style="stop-color:#CECBB9"/>
					<stop offset="0.7128" style="stop-color:#CCC9B6"/>
					<stop offset="1" style="stop-color:#BBB99D"/>
				</linearGradient>
				<path d="M260.537,191.268&#xA;					c-0.158,0.508-1.225,9.192-1.16,9.521c1.127-2.186,2.637-4.025,4.53-5.544c1.908-1.532,4.054-2.578,6.505-3.176&#xA;					c0,0.246,0,0.442,0,0.637c0,10.207-0.003,20.414,0.003,30.621c0.001,1.843-0.057,3.681-0.302,5.51&#xA;					c-0.161,1.203-0.377,2.396-0.77,3.548c-0.269,0.788-0.607,1.54-1.199,2.151c-0.021,0.022-0.012,0.074-0.017,0.113&#xA;					c1.02,0.082,14.818,0.044,15.13-0.039c-0.221-0.325-0.492-0.63-0.655-0.984c-0.286-0.619-0.561-1.253-0.742-1.908&#xA;					c-0.635-2.298-0.872-4.654-0.877-7.03c-0.014-6.524-0.005-13.048-0.005-19.572c0-4.168,0-8.337,0-12.505&#xA;					c0-0.165,0-0.329,0-0.555c5.036,1.316,8.658,4.291,11.126,8.748c-0.403-3.178-0.806-6.356-1.209-9.534&#xA;					C280.737,191.268,270.633,191.268,260.537,191.268z" style="fill:url(#SVGID_00000003078756116910490850000004235045829166241409_);"/>
				
					<linearGradient gradientUnits="userSpaceOnUse" id="SVGID_00000124153670593211901500000017775960801452449960_" x1="-9.0246" x2="1393.8793" y1="336.946" y2="-223.7502">
					<stop offset="0" style="stop-color:#D0CEBD"/>
					<stop offset="0.0194" style="stop-color:#DBDACE"/>
					<stop offset="0.0476" style="stop-color:#E6E5DF"/>
					<stop offset="0.0827" style="stop-color:#EDEDEA"/>
					<stop offset="0.132" style="stop-color:#F2F2F1"/>
					<stop offset="0.2689" style="stop-color:#F3F3F3"/>
					<stop offset="0.3715" style="stop-color:#EFEEEC"/>
					<stop offset="0.5202" style="stop-color:#E2E1D9"/>
					<stop offset="0.6964" style="stop-color:#CECBB9"/>
					<stop offset="0.7128" style="stop-color:#CCC9B6"/>
					<stop offset="1" style="stop-color:#BBB99D"/>
				</linearGradient>
				<path d="M307.474,193.757&#xA;					c0.257-0.806,0.578-1.582,1.142-2.232c0.06-0.069,0.115-0.143,0.205-0.256c-0.129-0.011-0.196-0.021-0.263-0.021&#xA;					c-4.981,0.004-9.962,0.008-14.943,0.014c-0.01,0-0.022,0.013-0.03,0.023c-0.008,0.011-0.012,0.026-0.025,0.056&#xA;					c0.643,0.652,0.997,1.474,1.28,2.333c0.111,0.338,0.204,0.683,0.287,1.03c0.544,2.29,0.733,4.621,0.739,6.965&#xA;					c0.018,7.122,0.009,14.245,0.003,21.367c-0.001,1.07-0.014,2.141-0.071,3.209c-0.088,1.668-0.27,3.328-0.673,4.954&#xA;					c-0.13,0.525-0.294,1.043-0.474,1.553c-0.242,0.687-0.595,1.317-1.171,1.894c5.169,0,10.228,0,15.332,0&#xA;					c-0.053-0.081-0.075-0.13-0.11-0.168c-0.455-0.489-0.78-1.063-0.983-1.69c-0.258-0.799-0.506-1.607-0.674-2.428&#xA;					c-0.41-2.005-0.567-4.039-0.568-6.084c-0.002-7.179,0.002-14.359-0.003-21.538c-0.001-1.671,0.022-3.339,0.215-5.001&#xA;					C306.848,196.39,307.061,195.053,307.474,193.757z" style="fill:url(#SVGID_00000124153670593211901500000017775960801452449960_);"/>
				
					<linearGradient gradientUnits="userSpaceOnUse" id="SVGID_00000123400245832434514430000006180071498783630503_" x1="-25.377" x2="1377.5269" y1="296.0311" y2="-264.6651">
					<stop offset="0" style="stop-color:#D0CEBD"/>
					<stop offset="0.0194" style="stop-color:#DBDACE"/>
					<stop offset="0.0476" style="stop-color:#E6E5DF"/>
					<stop offset="0.0827" style="stop-color:#EDEDEA"/>
					<stop offset="0.132" style="stop-color:#F2F2F1"/>
					<stop offset="0.2689" style="stop-color:#F3F3F3"/>
					<stop offset="0.3715" style="stop-color:#EFEEEC"/>
					<stop offset="0.5202" style="stop-color:#E2E1D9"/>
					<stop offset="0.6964" style="stop-color:#CECBB9"/>
					<stop offset="0.7128" style="stop-color:#CCC9B6"/>
					<stop offset="1" style="stop-color:#BBB99D"/>
				</linearGradient>
				<path d="M342.753,154.242&#xA;					c-0.222,0.65-0.486,1.28-0.922,1.823c-0.056,0.07-0.107,0.143-0.204,0.273c0.214,0,0.359,0.001,0.505,0&#xA;					c4.067-0.022,8.135-0.053,12.202-0.064c4.002-0.011,8.003-0.004,12.005-0.001c1.015,0.001,1.789-0.43,2.357-1.259&#xA;					c0.05-0.073,0.106-0.142,0.171-0.229c0.064,0.093,0.11,0.16,0.156,0.227c0.566,0.83,1.345,1.255,2.357,1.26&#xA;					c8.604,0.041,17.207-0.074,25.811,0.058c2.946,0.045,5.893,0.006,8.839,0.008c1.247,0,2.494,0.005,3.741,0.008&#xA;					c0-0.027,0-0.055,0-0.082c-0.245-0.305-0.549-0.58-0.723-0.922c-0.296-0.583-0.559-1.192-0.749-1.816&#xA;					c-0.59-1.938-0.846-3.941-0.888-5.954c-0.067-3.191-0.031-6.384-0.045-9.576c-0.004-0.876-0.013-1.754-0.054-2.629&#xA;					c-0.077-1.674-0.316-3.328-0.831-4.926c-0.918-2.849-2.559-5.155-5.155-6.728c-1.278-0.774-2.653-1.306-4.101-1.641&#xA;					c-2.928-0.677-5.885-0.772-8.859-0.35c-2.804,0.398-5.422,1.319-7.815,2.838c-0.679,0.431-1.296,0.962-1.938,1.451&#xA;					c-0.083,0.063-0.146,0.153-0.23,0.243c2.497,5.156,4.986,10.296,7.475,15.437c0.067-0.108,0.068-0.199,0.067-0.29&#xA;					c-0.005-0.808-0.022-1.617-0.014-2.425c0.031-3.113,0.229-6.213,0.837-9.273c0.37-1.861,0.875-3.68,1.912-5.299&#xA;					c0.788-1.229,1.855-2.009,3.394-1.919c1.025,0.06,1.922,0.429,2.617,1.204c0.499,0.556,0.861,1.199,1.129,1.896&#xA;					c0.517,1.345,0.722,2.752,0.801,4.177c0.055,0.998,0.064,1.999,0.067,2.999c0.008,2.932,0.003,5.864,0.003,8.795&#xA;					c0,3.151,0,6.302-0.001,9.453c0,0.158-0.009,0.315-0.014,0.466c-7.695,0-15.334,0-23.001,0c0-0.193,0-0.356,0-0.518&#xA;					c0-4.069,0.006-8.138-0.003-12.207c-0.003-1.481,0.039-2.958,0.19-4.431c0.156-1.527,0.368-3.045,0.818-4.518&#xA;					c0.228-0.749,0.512-1.475,1.008-2.097c0.056-0.07,0.104-0.145,0.177-0.249c-4.733,0-9.42,0-14.133,0&#xA;					c0.201,0.302,0.398,0.563,0.559,0.844c0.37,0.646,0.596,1.351,0.782,2.069c0.513,1.985,0.78,4.014,0.804,6.053&#xA;					c0.057,4.945,0.03,9.891,0.035,14.837c0,0.077-0.027,0.153-0.04,0.221c-3.06,0-6.096,0-9.178,0c0-13.142,0-26.257,0-39.419&#xA;					c-4.375,1.025-8.696,2.037-13.036,3.054c0.849,1.247,1.075,1.712,1.404,3.041c0.141,0.57,0.24,1.151,0.333,1.731&#xA;					c0.315,1.978,0.457,3.97,0.455,5.973c-0.006,6.302-0.009,12.604,0.002,18.906c0.003,1.975-0.091,3.942-0.341,5.901&#xA;					C343.334,151.88,343.149,153.083,342.753,154.242z" style="fill:url(#SVGID_00000123400245832434514430000006180071498783630503_);"/>
				
					<linearGradient gradientUnits="userSpaceOnUse" id="SVGID_00000111875811813565099330000011039673656161691302_" x1="-30.0897" x2="1372.8142" y1="284.2396" y2="-276.4566">
					<stop offset="0" style="stop-color:#D0CEBD"/>
					<stop offset="0.0194" style="stop-color:#DBDACE"/>
					<stop offset="0.0476" style="stop-color:#E6E5DF"/>
					<stop offset="0.0827" style="stop-color:#EDEDEA"/>
					<stop offset="0.132" style="stop-color:#F2F2F1"/>
					<stop offset="0.2689" style="stop-color:#F3F3F3"/>
					<stop offset="0.3715" style="stop-color:#EFEEEC"/>
					<stop offset="0.5202" style="stop-color:#E2E1D9"/>
					<stop offset="0.6964" style="stop-color:#CECBB9"/>
					<stop offset="0.7128" style="stop-color:#CCC9B6"/>
					<stop offset="1" style="stop-color:#BBB99D"/>
				</linearGradient>
				<path d="M392.657,119.6&#xA;					c2.236,0.561,4.296-0.547,5.24-1.883c2.078-2.94,0.56-6.968-2.955-7.762c-0.184-0.041-0.366-0.091-0.549-0.137&#xA;					c-0.329,0-0.658,0-0.987,0c-0.076,0.025-0.149,0.063-0.227,0.075c-2.732,0.399-4.614,2.932-4.202,5.66&#xA;					C389.267,117.478,390.781,119.129,392.657,119.6z" style="fill:url(#SVGID_00000111875811813565099330000011039673656161691302_);"/>
				
					<linearGradient gradientUnits="userSpaceOnUse" id="SVGID_00000052818263903545302380000010181504671125559195_" x1="-55.734" x2="1347.1698" y1="220.0755" y2="-340.6207">
					<stop offset="0" style="stop-color:#D0CEBD"/>
					<stop offset="0.0194" style="stop-color:#DBDACE"/>
					<stop offset="0.0476" style="stop-color:#E6E5DF"/>
					<stop offset="0.0827" style="stop-color:#EDEDEA"/>
					<stop offset="0.132" style="stop-color:#F2F2F1"/>
					<stop offset="0.2689" style="stop-color:#F3F3F3"/>
					<stop offset="0.3715" style="stop-color:#EFEEEC"/>
					<stop offset="0.5202" style="stop-color:#E2E1D9"/>
					<stop offset="0.6964" style="stop-color:#CECBB9"/>
					<stop offset="0.7128" style="stop-color:#CCC9B6"/>
					<stop offset="1" style="stop-color:#BBB99D"/>
				</linearGradient>
				<path d="M206.692,155.429&#xA;					c2.119-0.58,4.046-1.512,5.646-3.054c1.131-1.089,2.023-2.346,2.632-3.787c0.961-2.275,1.395-4.67,1.406-7.127&#xA;					c0.028-6.192,0.02-12.385,0.011-18.577c-0.003-1.99,0.102-3.97,0.425-5.934c0.198-1.204,0.46-2.393,0.963-3.514&#xA;					c0.208-0.462,0.419-0.924,0.777-1.296c0.061-0.064,0.112-0.137,0.201-0.247c-0.12-0.009-0.184-0.017-0.247-0.017&#xA;					c-5.043,0.003-10.086,0.007-15.129,0.011c-0.009,0-0.021,0.014-0.026,0.023c-0.006,0.011-0.007,0.025-0.016,0.057&#xA;					c0.636,0.623,0.99,1.421,1.278,2.254c0.107,0.31,0.197,0.627,0.276,0.945c0.586,2.353,0.792,4.752,0.8,7.168&#xA;					c0.017,5.274,0.005,10.549,0.005,15.823c0,2.603,0.003,5.206-0.001,7.809c-0.002,1.509-0.089,3.012-0.403,4.493&#xA;					c-0.061,0.29-0.145,0.575-0.219,0.862c-8.581,0.023-17.112,0.045-25.679,0.068c0-0.221,0-0.383,0-0.545&#xA;					c0-6.083-0.004-12.166,0.004-18.248c0.001-1.095,0.032-2.191,0.081-3.285c0.048-1.056,0.213-2.098,0.509-3.114&#xA;					c0.338-1.159,0.848-2.214,1.773-3.045c0.938-0.842,3.066-1.337,4.532-0.168c0.645,0.514,1.158,1.142,1.499,1.88&#xA;					c0.371,0.805,0.71,1.634,0.972,2.48c0.747,2.407,1.037,4.896,1.223,7.397c0.159,2.132,0.205,4.269,0.155,6.407&#xA;					c-0.002,0.1,0.015,0.2,0.023,0.3c0.021,0.003,0.043,0.006,0.064,0.008c2.483-5.13,4.966-10.26,7.457-15.407&#xA;					c-0.173-0.158-0.321-0.298-0.473-0.433c-1.097-0.97-2.348-1.707-3.662-2.331c-2.634-1.251-5.42-1.888-8.332-1.977&#xA;					c-2.478-0.076-4.928,0.106-7.316,0.829c-2.431,0.736-4.527,1.985-6.143,3.982c-1.332,1.646-2.103,3.542-2.557,5.587&#xA;					c-0.379,1.707-0.509,3.436-0.507,5.181c0.005,4.644,0.002,9.289,0.002,13.933c0,0.159,0,0.318,0,0.483c-4.165,0-8.27,0-12.421,0&#xA;					c0-0.181,0-0.342,0-0.503c0-4,0.01-8.001-0.004-12.001c-0.007-1.989,0.082-3.97,0.347-5.941c0.168-1.25,0.395-2.487,0.812-3.682&#xA;					c0.208-0.596,0.431-1.184,0.848-1.675c0.056-0.066,0.099-0.145,0.159-0.234c-4.717,0-9.395,0-14.071,0&#xA;					c-0.005,0.036-0.013,0.054-0.007,0.061c0.679,0.822,1.032,1.787,1.285,2.809c0.549,2.219,0.815,4.477,0.834,6.752&#xA;					c0.04,4.699,0.014,9.398,0.013,14.097c0,0.104-0.02,0.209-0.031,0.317c-9.012,0-17.996,0-27.02,0c0-13.141,0-26.26,0-39.43&#xA;					c-4.375,1.025-8.7,2.038-13.057,3.058c0.055,0.08,0.086,0.139,0.129,0.188c0.376,0.428,0.652,0.92,0.834,1.453&#xA;					c0.221,0.646,0.434,1.3,0.581,1.966c0.479,2.174,0.673,4.383,0.675,6.606c0.006,6.48,0.006,12.96-0.002,19.44&#xA;					c-0.001,1.123-0.031,2.246-0.087,3.367c-0.077,1.533-0.258,3.056-0.591,4.556c-0.279,1.26-0.604,2.507-1.462,3.53&#xA;					c-0.012,0.014,0.003,0.05,0.008,0.112c0.143,0,0.289,0.001,0.436,0c4.068-0.02,8.136-0.055,12.204-0.058&#xA;					c9.812-0.009,19.625-0.003,29.437-0.003c0.164,0,0.329,0.005,0.493-0.001c0.935-0.038,1.688-0.419,2.234-1.188&#xA;					c0.067-0.094,0.136-0.187,0.212-0.292c0.046,0.055,0.076,0.083,0.096,0.118c0.494,0.878,1.273,1.313,2.251,1.355&#xA;					c1.257,0.053,2.517,0.067,3.775,0.068c6.249,0.006,12.498,0.003,18.748,0.003c0.123,0,0.247,0.006,0.37-0.002&#xA;					c0.943-0.064,1.719-0.424,2.228-1.257c0.046-0.076,0.101-0.147,0.153-0.221c0.044,0.034,0.073,0.046,0.086,0.068&#xA;					c0.609,1.019,1.528,1.419,2.69,1.418c6.304-0.01,12.608,0.001,18.912-0.008C202.786,156.139,204.761,155.958,206.692,155.429z" style="fill:url(#SVGID_00000052818263903545302380000010181504671125559195_);"/>
				
					<linearGradient gradientUnits="userSpaceOnUse" id="SVGID_00000177450232702400766700000011516984270877184170_" x1="-66.639" x2="1336.2649" y1="192.7906" y2="-367.9056">
					<stop offset="0" style="stop-color:#D0CEBD"/>
					<stop offset="0.0194" style="stop-color:#DBDACE"/>
					<stop offset="0.0476" style="stop-color:#E6E5DF"/>
					<stop offset="0.0827" style="stop-color:#EDEDEA"/>
					<stop offset="0.132" style="stop-color:#F2F2F1"/>
					<stop offset="0.2689" style="stop-color:#F3F3F3"/>
					<stop offset="0.3715" style="stop-color:#EFEEEC"/>
					<stop offset="0.5202" style="stop-color:#E2E1D9"/>
					<stop offset="0.6964" style="stop-color:#CECBB9"/>
					<stop offset="0.7128" style="stop-color:#CCC9B6"/>
					<stop offset="1" style="stop-color:#BBB99D"/>
				</linearGradient>
				<path d="M101.191,154.065&#xA;					c-0.011-7.069-0.01-14.138-0.005-21.207c0-0.395,0.026-0.794,0.083-1.185c0.234-1.58,0.813-3.006,1.927-4.184&#xA;					c0.057-0.06,0.09-0.141,0.14-0.22c-4.715,0-9.392,0-14.124,0c0.112,0.121,0.181,0.202,0.256,0.276&#xA;					c1.289,1.282,1.932,2.835,1.932,4.65c0.002,6.247,0.001,12.494,0.001,18.741c0,0.118-0.016,0.237-0.024,0.348&#xA;					c-0.648,0.084-40.251,0.053-40.571-0.037c0-0.153,0-0.315,0-0.478c0-4.945-0.01-9.891,0.007-14.837&#xA;					c0.005-1.3,0.067-2.601,0.153-3.899c0.092-1.381,0.298-2.749,0.65-4.09c0.304-1.156,0.634-2.304,1.499-3.264&#xA;					c-0.119,0-0.238,0-0.357,0c-6.002,0-12.004,0-18.007,0.002c-1.813,0.001-3.613,0.148-5.392,0.501&#xA;					c-1.769,0.351-3.466,0.903-5.038,1.811c-2.235,1.291-3.841,3.129-4.706,5.555c-1.176,3.303-1.225,6.652-0.175,10.001&#xA;					c0.552,1.759,1.537,3.264,2.858,4.544c0.882,0.855,1.889,1.548,2.991,2.081c3.105,1.501,6.374,2.124,9.815,1.733&#xA;					c1.001-0.114,1.959-0.395,2.841-0.894c0.88-0.498,1.59-1.159,1.987-2.114c0.018-0.043,0.057-0.078,0.151-0.203&#xA;					c0,0.215,0,0.332,0,0.448c0,0.808-0.009,1.617,0.003,2.425c0.041,2.88,2.247,5.278,5.114,5.53&#xA;					c0.761,0.067,1.532,0.047,2.298,0.044c3.944-0.015,7.889-0.054,11.833-0.056c12.964-0.007,25.928-0.003,38.891-0.003&#xA;					c0.178,0,0.356,0.003,0.534-0.001c0.844-0.021,1.533-0.358,2.073-1.008C101.075,154.78,101.191,154.465,101.191,154.065z&#xA;					 M40.085,125.654c0,5.917,0.002,11.833-0.002,17.75c-0.001,1.084-0.099,2.16-0.401,3.207c-0.075,0.262-0.181,0.517-0.296,0.764&#xA;					c-0.551,1.184-1.475,1.925-2.739,2.217c-1.177,0.272-2.367,0.275-3.543-0.008c-0.99-0.239-1.794-0.774-2.408-1.605&#xA;					c-0.808-1.093-1.238-2.338-1.544-3.639c-0.308-1.309-0.466-2.641-0.55-3.981c-0.104-1.668-0.154-3.338-0.031-5.008&#xA;					c0.131-1.785,0.441-3.531,1.163-5.181c0.554-1.267,1.278-2.421,2.368-3.307c1.355-1.101,2.893-1.695,4.651-1.685&#xA;					c0.959,0.005,1.918,0.001,2.877,0.001c0.134,0,0.268,0,0.454,0C40.085,125.383,40.085,125.518,40.085,125.654z" style="fill:url(#SVGID_00000177450232702400766700000011516984270877184170_);"/>
				
					<linearGradient gradientUnits="userSpaceOnUse" id="SVGID_00000018940539528808129050000009681701416517293476_" x1="-36.5581" x2="1366.3458" y1="268.0552" y2="-292.6411">
					<stop offset="0" style="stop-color:#D0CEBD"/>
					<stop offset="0.0194" style="stop-color:#DBDACE"/>
					<stop offset="0.0476" style="stop-color:#E6E5DF"/>
					<stop offset="0.0827" style="stop-color:#EDEDEA"/>
					<stop offset="0.132" style="stop-color:#F2F2F1"/>
					<stop offset="0.2689" style="stop-color:#F3F3F3"/>
					<stop offset="0.3715" style="stop-color:#EFEEEC"/>
					<stop offset="0.5202" style="stop-color:#E2E1D9"/>
					<stop offset="0.6964" style="stop-color:#CECBB9"/>
					<stop offset="0.7128" style="stop-color:#CCC9B6"/>
					<stop offset="1" style="stop-color:#BBB99D"/>
				</linearGradient>
				<path d="M252.971,147.643&#xA;					c0.668,1.996,1.741,3.748,3.3,5.175c1.667,1.525,3.661,2.429,5.839,2.95c1.809,0.433,3.649,0.58,5.504,0.569&#xA;					c6.534-0.037,13.068,0.063,19.601-0.058c2.74-0.051,5.482-0.008,8.222-0.008c1.973,0,3.947,0.002,5.92-0.001&#xA;					c0.859-0.002,1.565-0.341,2.123-0.993c0.249-0.291,0.368-0.606,0.367-1.007c-0.011-6.973-0.005-13.946-0.011-20.919&#xA;					c-0.001-0.771,0.071-1.526,0.235-2.28c0.28-1.29,0.85-2.42,1.752-3.383c0.058-0.061,0.099-0.138,0.183-0.258&#xA;					c-0.586,0-1.103,0-1.621,0c-0.521,0-1.042,0-1.562,0c-0.521,0-1.042,0-1.562,0c-0.521,0-1.041,0-1.562,0&#xA;					c-0.521,0-1.042,0-1.562,0c-0.521,0-1.041,0-1.562,0c-0.521,0-1.041,0-1.562,0c-0.521,0-1.042-0.002-1.562,0.001&#xA;					c-0.508,0.003-1.018-0.013-1.596,0.014c0.129,0.153,0.193,0.24,0.268,0.317c1.353,1.371,1.949,3.025,1.944,4.943&#xA;					c-0.015,6.096-0.006,12.192-0.006,18.289c0,0.149,0,0.298,0,0.516c-0.187,0-0.321,0-0.456,0c-7.797,0-15.595,0.003-23.392-0.006&#xA;					c-0.545-0.001-1.096-0.053-1.634-0.142c-1.409-0.235-2.765-0.665-4.098-1.173c-2.596-0.99-5.048-2.251-7.32-3.857&#xA;					c-0.831-0.587-1.6-1.245-2.311-1.97c-0.558-0.569-1.058-1.185-1.428-1.898c-0.249-0.479-0.427-0.98-0.46-1.522&#xA;					c-0.061-1.007,0.318-1.845,1.009-2.556c0.434-0.446,0.945-0.787,1.485-1.092c1.144-0.647,2.388-1.025,3.654-1.331&#xA;					c2.485-0.601,5.018-0.875,7.566-0.979c1.738-0.07,3.479-0.056,5.219-0.082c0.082-0.001,0.163-0.022,0.343-0.049&#xA;					c-5.23-2.531-10.364-5.015-15.511-7.505c-0.412,0.411-0.748,0.838-1.067,1.284c-1.427,1.995-2.449,4.172-3.019,6.561&#xA;					c-0.299,1.254-0.515,2.519-0.607,3.806c-0.114,1.59-0.071,3.176,0.107,4.759C252.289,145.078,252.549,146.381,252.971,147.643z" style="fill:url(#SVGID_00000018940539528808129050000009681701416517293476_);"/>
				
					<linearGradient gradientUnits="userSpaceOnUse" id="SVGID_00000109752639019908801990000017465088138492063668_" x1="-45.9324" x2="1356.9714" y1="244.5999" y2="-316.0963">
					<stop offset="0" style="stop-color:#D0CEBD"/>
					<stop offset="0.0194" style="stop-color:#DBDACE"/>
					<stop offset="0.0476" style="stop-color:#E6E5DF"/>
					<stop offset="0.0827" style="stop-color:#EDEDEA"/>
					<stop offset="0.132" style="stop-color:#F2F2F1"/>
					<stop offset="0.2689" style="stop-color:#F3F3F3"/>
					<stop offset="0.3715" style="stop-color:#EFEEEC"/>
					<stop offset="0.5202" style="stop-color:#E2E1D9"/>
					<stop offset="0.6964" style="stop-color:#CECBB9"/>
					<stop offset="0.7128" style="stop-color:#CCC9B6"/>
					<stop offset="1" style="stop-color:#BBB99D"/>
				</linearGradient>
				<path d="M225.111,149.23&#xA;					c-0.142,1.377-0.339,2.744-0.728,4.076c-0.196,0.669-0.381,1.346-0.764,1.941c-0.197,0.305-0.424,0.591-0.638,0.887&#xA;					c0.51,0.084,15.088,0.06,15.388-0.031c-0.468-0.451-0.8-0.987-1.016-1.582c-0.242-0.667-0.474-1.343-0.641-2.032&#xA;					c-0.524-2.168-0.676-4.382-0.68-6.604c-0.013-7.11-0.005-14.22-0.004-21.33c0-1.863-0.012-3.724,0.157-5.584&#xA;					c0.125-1.368,0.333-2.717,0.701-4.038c0.288-1.035,0.679-2.027,1.431-2.832c0.01-0.01-0.01-0.048-0.018-0.078&#xA;					c-5.093,0-10.187,0-15.391,0c0.564,0.563,0.908,1.152,1.141,1.798c0.377,1.045,0.642,2.121,0.815,3.218&#xA;					c0.314,1.993,0.434,3.999,0.432,6.017c-0.009,7.357-0.006,14.713-0.001,22.07C225.295,146.498,225.251,147.866,225.111,149.23z" style="fill:url(#SVGID_00000109752639019908801990000017465088138492063668_);"/>
				
					<linearGradient gradientUnits="userSpaceOnUse" id="SVGID_00000101800577287891366370000015742938647300723896_" x1="-34.1028" x2="1368.801" y1="274.1985" y2="-286.4977">
					<stop offset="0" style="stop-color:#D0CEBD"/>
					<stop offset="0.0194" style="stop-color:#DBDACE"/>
					<stop offset="0.0476" style="stop-color:#E6E5DF"/>
					<stop offset="0.0827" style="stop-color:#EDEDEA"/>
					<stop offset="0.132" style="stop-color:#F2F2F1"/>
					<stop offset="0.2689" style="stop-color:#F3F3F3"/>
					<stop offset="0.3715" style="stop-color:#EFEEEC"/>
					<stop offset="0.5202" style="stop-color:#E2E1D9"/>
					<stop offset="0.6964" style="stop-color:#CECBB9"/>
					<stop offset="0.7128" style="stop-color:#CCC9B6"/>
					<stop offset="1" style="stop-color:#BBB99D"/>
				</linearGradient>
				<path d="M309.864,153.478&#xA;					c-0.29,0.992-0.666,1.944-1.399,2.71c-0.009,0.01,0.009,0.047,0.014,0.069c5.104,0,10.207,0,15.34,0&#xA;					c-0.034-0.064-0.044-0.103-0.068-0.128c-0.425-0.442-0.717-0.966-0.948-1.527c-0.292-0.71-0.494-1.445-0.65-2.199&#xA;					c-0.456-2.209-0.661-4.44-0.663-6.691c-0.005-7.439,0.003-14.877-0.005-22.316c-0.003-2.54,0.148-5.061,0.687-7.552&#xA;					c0.29-1.34,0.699-2.615,1.667-3.694c-0.7-0.085-15.098-0.055-15.356,0.018c0.244,0.366,0.52,0.723,0.736,1.114&#xA;					c0.44,0.797,0.705,1.665,0.88,2.553c0.459,2.331,0.671,4.685,0.668,7.062c-0.008,7.261-0.008,14.521,0.001,21.782&#xA;					c0.002,1.741-0.035,3.479-0.248,5.209C310.371,151.097,310.207,152.305,309.864,153.478z" style="fill:url(#SVGID_00000101800577287891366370000015742938647300723896_);"/>
				
					<linearGradient gradientUnits="userSpaceOnUse" id="SVGID_00000098905830902785220440000007909378775083264914_" x1="-27.8779" x2="1375.026" y1="289.7738" y2="-270.9225">
					<stop offset="0" style="stop-color:#D0CEBD"/>
					<stop offset="0.0194" style="stop-color:#DBDACE"/>
					<stop offset="0.0476" style="stop-color:#E6E5DF"/>
					<stop offset="0.0827" style="stop-color:#EDEDEA"/>
					<stop offset="0.132" style="stop-color:#F2F2F1"/>
					<stop offset="0.2689" style="stop-color:#F3F3F3"/>
					<stop offset="0.3715" style="stop-color:#EFEEEC"/>
					<stop offset="0.5202" style="stop-color:#E2E1D9"/>
					<stop offset="0.6964" style="stop-color:#CECBB9"/>
					<stop offset="0.7128" style="stop-color:#CCC9B6"/>
					<stop offset="1" style="stop-color:#BBB99D"/>
				</linearGradient>
				<path d="M325.974,161.009&#xA;					c-0.455,1.316-1.055,2.555-2.009,3.595c-1.519,1.657-3.377,2.527-5.651,2.433c-0.94-0.039-1.846-0.228-2.788-0.666&#xA;					c0.074,0.248,0.138,0.411,0.171,0.581c0.062,0.324,0.256,0.517,0.543,0.665c1.154,0.594,2.374,0.992,3.646,1.225&#xA;					c2.602,0.475,5.208,0.454,7.807-0.013c1.726-0.31,3.37-0.871,4.832-1.862c0.587-0.398,1.165-0.831,1.663-1.332&#xA;					c1.651-1.662,2.626-3.689,3.057-5.98c0.241-1.282,0.297-2.581,0.296-3.884c-0.005-4.37-0.002-8.74-0.002-13.11&#xA;					c0-4.891,0-9.781-0.001-14.672c0-0.173-0.012-0.347-0.019-0.531c-4.362,0-8.681,0-13.054,0c0.094,0.112,0.159,0.178,0.211,0.252&#xA;					c0.18,0.257,0.388,0.501,0.529,0.779c0.441,0.871,0.734,1.797,0.942,2.75c0.479,2.19,0.682,4.409,0.689,6.647&#xA;					c0.011,3.754,0.003,7.507,0.003,11.261c0,1.959,0,3.918,0,5.877C326.84,157.059,326.644,159.069,325.974,161.009z" style="fill:url(#SVGID_00000098905830902785220440000007909378775083264914_);"/>
				
					<linearGradient gradientUnits="userSpaceOnUse" id="SVGID_00000005984160354479636720000012164658887549929880_" x1="-78.7453" x2="1324.1586" y1="162.4997" y2="-398.1966">
					<stop offset="0" style="stop-color:#D0CEBD"/>
					<stop offset="0.0194" style="stop-color:#DBDACE"/>
					<stop offset="0.0476" style="stop-color:#E6E5DF"/>
					<stop offset="0.0827" style="stop-color:#EDEDEA"/>
					<stop offset="0.132" style="stop-color:#F2F2F1"/>
					<stop offset="0.2689" style="stop-color:#F3F3F3"/>
					<stop offset="0.3715" style="stop-color:#EFEEEC"/>
					<stop offset="0.5202" style="stop-color:#E2E1D9"/>
					<stop offset="0.6964" style="stop-color:#CECBB9"/>
					<stop offset="0.7128" style="stop-color:#CCC9B6"/>
					<stop offset="1" style="stop-color:#BBB99D"/>
				</linearGradient>
				<path d="M34.292,122.347&#xA;					c2.777-0.099,4.9-2.434,4.788-5.137c-0.117-2.82-2.483-4.926-5.279-4.764c-2.719,0.158-4.804,2.522-4.63,5.275&#xA;					C29.329,120.223,31.416,122.431,34.292,122.347z" style="fill:url(#SVGID_00000005984160354479636720000012164658887549929880_);"/>
				
					<linearGradient gradientUnits="userSpaceOnUse" id="SVGID_00000170270163304221639340000003409810644726503564_" x1="-15.7226" x2="1387.1813" y1="320.187" y2="-240.5092">
					<stop offset="0" style="stop-color:#D0CEBD"/>
					<stop offset="0.0194" style="stop-color:#DBDACE"/>
					<stop offset="0.0476" style="stop-color:#E6E5DF"/>
					<stop offset="0.0827" style="stop-color:#EDEDEA"/>
					<stop offset="0.132" style="stop-color:#F2F2F1"/>
					<stop offset="0.2689" style="stop-color:#F3F3F3"/>
					<stop offset="0.3715" style="stop-color:#EFEEEC"/>
					<stop offset="0.5202" style="stop-color:#E2E1D9"/>
					<stop offset="0.6964" style="stop-color:#CECBB9"/>
					<stop offset="0.7128" style="stop-color:#CCC9B6"/>
					<stop offset="1" style="stop-color:#BBB99D"/>
				</linearGradient>
				<path d="M369.567,164.196&#xA;					c-0.007,2.754,2.2,4.977,4.944,4.978c2.745,0.001,4.983-2.22,4.984-4.948c0.002-2.729-2.232-4.955-4.975-4.959&#xA;					C371.793,159.263,369.574,161.471,369.567,164.196z" style="fill:url(#SVGID_00000170270163304221639340000003409810644726503564_);"/>
				
					<linearGradient gradientUnits="userSpaceOnUse" id="SVGID_00000168837133811762907850000011449726026945949089_" x1="-56.1724" x2="1346.7314" y1="218.9787" y2="-341.7176">
					<stop offset="0" style="stop-color:#D0CEBD"/>
					<stop offset="0.0194" style="stop-color:#DBDACE"/>
					<stop offset="0.0476" style="stop-color:#E6E5DF"/>
					<stop offset="0.0827" style="stop-color:#EDEDEA"/>
					<stop offset="0.132" style="stop-color:#F2F2F1"/>
					<stop offset="0.2689" style="stop-color:#F3F3F3"/>
					<stop offset="0.3715" style="stop-color:#EFEEEC"/>
					<stop offset="0.5202" style="stop-color:#E2E1D9"/>
					<stop offset="0.6964" style="stop-color:#CECBB9"/>
					<stop offset="0.7128" style="stop-color:#CCC9B6"/>
					<stop offset="1" style="stop-color:#BBB99D"/>
				</linearGradient>
				<path d="M86.243,164.026&#xA;					c0.041-2.439-1.866-4.914-4.917-4.955c-2.74-0.037-4.964,2.204-4.99,4.94c-0.024,2.536,1.997,4.984,4.955,4.976&#xA;					C84.428,168.979,86.279,166.454,86.243,164.026z" style="fill:url(#SVGID_00000168837133811762907850000011449726026945949089_);"/>
				
					<linearGradient gradientUnits="userSpaceOnUse" id="SVGID_00000131352503684482504330000018350236511736813205_" x1="-44.3483" x2="1358.5555" y1="248.5636" y2="-312.1327">
					<stop offset="0" style="stop-color:#D0CEBD"/>
					<stop offset="0.0194" style="stop-color:#DBDACE"/>
					<stop offset="0.0476" style="stop-color:#E6E5DF"/>
					<stop offset="0.0827" style="stop-color:#EDEDEA"/>
					<stop offset="0.132" style="stop-color:#F2F2F1"/>
					<stop offset="0.2689" style="stop-color:#F3F3F3"/>
					<stop offset="0.3715" style="stop-color:#EFEEEC"/>
					<stop offset="0.5202" style="stop-color:#E2E1D9"/>
					<stop offset="0.6964" style="stop-color:#CECBB9"/>
					<stop offset="0.7128" style="stop-color:#CCC9B6"/>
					<stop offset="1" style="stop-color:#BBB99D"/>
				</linearGradient>
				<path d="M284.692,122.001&#xA;					c2.746,0.001,4.936-2.177,4.944-4.919c0.008-2.772-2.169-4.946-4.927-4.985c-2.352-0.034-4.959,1.871-4.964,4.948&#xA;					C279.741,120.14,282.359,122.067,284.692,122.001z" style="fill:url(#SVGID_00000131352503684482504330000018350236511736813205_);"/>
				
					<linearGradient gradientUnits="userSpaceOnUse" id="SVGID_00000013156998242764775710000006377342935966830471_" x1="-62.6674" x2="1340.2365" y1="202.7277" y2="-357.9685">
					<stop offset="0" style="stop-color:#D0CEBD"/>
					<stop offset="0.0194" style="stop-color:#DBDACE"/>
					<stop offset="0.0476" style="stop-color:#E6E5DF"/>
					<stop offset="0.0827" style="stop-color:#EDEDEA"/>
					<stop offset="0.132" style="stop-color:#F2F2F1"/>
					<stop offset="0.2689" style="stop-color:#F3F3F3"/>
					<stop offset="0.3715" style="stop-color:#EFEEEC"/>
					<stop offset="0.5202" style="stop-color:#E2E1D9"/>
					<stop offset="0.6964" style="stop-color:#CECBB9"/>
					<stop offset="0.7128" style="stop-color:#CCC9B6"/>
					<stop offset="1" style="stop-color:#BBB99D"/>
				</linearGradient>
				<path d="M152.179,121.812&#xA;					c2.748-0.001,4.969-2.214,4.971-4.953c0.002-2.734-2.225-4.952-4.972-4.953c-2.726-0.001-4.935,2.204-4.942,4.934&#xA;					C147.229,119.598,149.432,121.813,152.179,121.812z" style="fill:url(#SVGID_00000013156998242764775710000006377342935966830471_);"/>
				
					<linearGradient gradientUnits="userSpaceOnUse" id="SVGID_00000072274705452304893070000003837764927403949206_" x1="-17.2707" x2="1385.6332" y1="316.3137" y2="-244.3825">
					<stop offset="0" style="stop-color:#D0CEBD"/>
					<stop offset="0.0194" style="stop-color:#DBDACE"/>
					<stop offset="0.0476" style="stop-color:#E6E5DF"/>
					<stop offset="0.0827" style="stop-color:#EDEDEA"/>
					<stop offset="0.132" style="stop-color:#F2F2F1"/>
					<stop offset="0.2689" style="stop-color:#F3F3F3"/>
					<stop offset="0.3715" style="stop-color:#EFEEEC"/>
					<stop offset="0.5202" style="stop-color:#E2E1D9"/>
					<stop offset="0.6964" style="stop-color:#CECBB9"/>
					<stop offset="0.7128" style="stop-color:#CCC9B6"/>
					<stop offset="1" style="stop-color:#BBB99D"/>
				</linearGradient>
				<path d="M363.286,159.267&#xA;					c-2.453-0.034-4.957,1.958-4.954,4.958c0.003,3.06,2.573,4.963,4.92,4.954c2.76-0.011,4.973-2.188,4.981-4.941&#xA;					C368.24,161.486,366.036,159.27,363.286,159.267z" style="fill:url(#SVGID_00000072274705452304893070000003837764927403949206_);"/>
				
					<linearGradient gradientUnits="userSpaceOnUse" id="SVGID_00000158740240097098145170000003815106043303688583_" x1="-77.1958" x2="1325.708" y1="166.3766" y2="-394.3196">
					<stop offset="0" style="stop-color:#D0CEBD"/>
					<stop offset="0.0194" style="stop-color:#DBDACE"/>
					<stop offset="0.0476" style="stop-color:#E6E5DF"/>
					<stop offset="0.0827" style="stop-color:#EDEDEA"/>
					<stop offset="0.132" style="stop-color:#F2F2F1"/>
					<stop offset="0.2689" style="stop-color:#F3F3F3"/>
					<stop offset="0.3715" style="stop-color:#EFEEEC"/>
					<stop offset="0.5202" style="stop-color:#E2E1D9"/>
					<stop offset="0.6964" style="stop-color:#CECBB9"/>
					<stop offset="0.7128" style="stop-color:#CCC9B6"/>
					<stop offset="1" style="stop-color:#BBB99D"/>
				</linearGradient>
				<path d="M45.369,122.353&#xA;					c2.721-0.002,4.931-2.214,4.939-4.941c0.008-2.752-2.201-4.974-4.944-4.973c-2.751,0.001-4.962,2.209-4.963,4.958&#xA;					C40.401,120.139,42.623,122.355,45.369,122.353z" style="fill:url(#SVGID_00000158740240097098145170000003815106043303688583_);"/>
				
					<linearGradient gradientUnits="userSpaceOnUse" id="SVGID_00000054948876286210152040000014518040543866018188_" x1="-54.6243" x2="1348.2795" y1="222.8523" y2="-337.844">
					<stop offset="0" style="stop-color:#D0CEBD"/>
					<stop offset="0.0194" style="stop-color:#DBDACE"/>
					<stop offset="0.0476" style="stop-color:#E6E5DF"/>
					<stop offset="0.0827" style="stop-color:#EDEDEA"/>
					<stop offset="0.132" style="stop-color:#F2F2F1"/>
					<stop offset="0.2689" style="stop-color:#F3F3F3"/>
					<stop offset="0.3715" style="stop-color:#EFEEEC"/>
					<stop offset="0.5202" style="stop-color:#E2E1D9"/>
					<stop offset="0.6964" style="stop-color:#CECBB9"/>
					<stop offset="0.7128" style="stop-color:#CCC9B6"/>
					<stop offset="1" style="stop-color:#BBB99D"/>
				</linearGradient>
				<path d="M92.563,159.07&#xA;					c-2.686,0.003-4.951,2.075-4.959,4.952c0.006,2.828,2.169,4.955,4.945,4.968c2.563,0.013,4.943-1.977,4.939-4.975&#xA;					C97.483,161.005,95.041,159.067,92.563,159.07z" style="fill:url(#SVGID_00000054948876286210152040000014518040543866018188_);"/>
				
					<linearGradient gradientUnits="userSpaceOnUse" id="SVGID_00000031186005320647310890000012809279989758601369_" x1="-45.8969" x2="1357.007" y1="244.6887" y2="-316.0075">
					<stop offset="0" style="stop-color:#D0CEBD"/>
					<stop offset="0.0194" style="stop-color:#DBDACE"/>
					<stop offset="0.0476" style="stop-color:#E6E5DF"/>
					<stop offset="0.0827" style="stop-color:#EDEDEA"/>
					<stop offset="0.132" style="stop-color:#F2F2F1"/>
					<stop offset="0.2689" style="stop-color:#F3F3F3"/>
					<stop offset="0.3715" style="stop-color:#EFEEEC"/>
					<stop offset="0.5202" style="stop-color:#E2E1D9"/>
					<stop offset="0.6964" style="stop-color:#CECBB9"/>
					<stop offset="0.7128" style="stop-color:#CCC9B6"/>
					<stop offset="1" style="stop-color:#BBB99D"/>
				</linearGradient>
				<path d="M273.458,122.001&#xA;					c2.737,0.001,4.932-2.184,4.948-4.925c0.015-2.747-2.197-4.971-4.945-4.971c-2.754,0-4.97,2.207-4.97,4.947&#xA;					C268.491,119.794,270.704,122,273.458,122.001z" style="fill:url(#SVGID_00000031186005320647310890000012809279989758601369_);"/>
			</g>
		</g>
	</g>
</switch>

</svg>